<svg width="123" height="125" viewBox="0 0 123 125" fill="none" xmlns="http://www.w3.org/2000/svg">
<g filter="url(#filter0_d_179_240)">
<ellipse cx="57.5" cy="56.5" rx="41.5" ry="42.5" fill="#0075FF"/>
</g>
<path d="M46.1885 58.7373C46.0889 60.1143 45.5791 61.1982 44.6592 61.9893C43.7451 62.7803 42.5381 63.1758 41.0381 63.1758C39.3975 63.1758 38.1055 62.625 37.1621 61.5234C36.2246 60.416 35.7559 58.8984 35.7559 56.9707V56.1885C35.7559 54.958 35.9727 53.874 36.4062 52.9365C36.8398 51.999 37.458 51.2812 38.2607 50.7832C39.0693 50.2793 40.0068 50.0273 41.0732 50.0273C42.5498 50.0273 43.7393 50.4229 44.6416 51.2139C45.5439 52.0049 46.0654 53.1152 46.2061 54.5449H43.5693C43.5049 53.7188 43.2734 53.1211 42.875 52.752C42.4824 52.377 41.8818 52.1895 41.0732 52.1895C40.1943 52.1895 39.5352 52.5059 39.0957 53.1387C38.6621 53.7656 38.4395 54.7412 38.4277 56.0654V57.0322C38.4277 58.415 38.6357 59.4258 39.0518 60.0645C39.4736 60.7031 40.1357 61.0225 41.0381 61.0225C41.8525 61.0225 42.459 60.8379 42.8574 60.4688C43.2617 60.0938 43.4932 59.5166 43.5518 58.7373H46.1885ZM54.5557 59.6426C54.5557 59.1445 54.3799 58.7637 54.0283 58.5C53.6768 58.2305 53.0439 57.9492 52.1299 57.6562C51.2158 57.3574 50.4922 57.0645 49.959 56.7773C48.5059 55.9922 47.7793 54.9346 47.7793 53.6045C47.7793 52.9131 47.9727 52.2979 48.3594 51.7588C48.752 51.2139 49.3115 50.7891 50.0381 50.4844C50.7705 50.1797 51.5908 50.0273 52.499 50.0273C53.4131 50.0273 54.2275 50.1943 54.9424 50.5283C55.6572 50.8564 56.2109 51.3223 56.6035 51.9258C57.002 52.5293 57.2012 53.2148 57.2012 53.9824H54.5645C54.5645 53.3965 54.3799 52.9424 54.0107 52.6201C53.6416 52.292 53.123 52.1279 52.4551 52.1279C51.8105 52.1279 51.3096 52.2656 50.9521 52.541C50.5947 52.8105 50.416 53.168 50.416 53.6133C50.416 54.0293 50.624 54.3779 51.04 54.6592C51.4619 54.9404 52.0801 55.2041 52.8945 55.4502C54.3945 55.9014 55.4873 56.4609 56.1729 57.1289C56.8584 57.7969 57.2012 58.6289 57.2012 59.625C57.2012 60.7324 56.7822 61.6025 55.9443 62.2354C55.1064 62.8623 53.9785 63.1758 52.5605 63.1758C51.5762 63.1758 50.6797 62.9971 49.8711 62.6396C49.0625 62.2764 48.4443 61.7812 48.0166 61.1543C47.5947 60.5273 47.3838 59.8008 47.3838 58.9746H50.0293C50.0293 60.3867 50.873 61.0928 52.5605 61.0928C53.1875 61.0928 53.6768 60.9668 54.0283 60.7148C54.3799 60.457 54.5557 60.0996 54.5557 59.6426ZM65.6299 59.6426C65.6299 59.1445 65.4541 58.7637 65.1025 58.5C64.751 58.2305 64.1182 57.9492 63.2041 57.6562C62.29 57.3574 61.5664 57.0645 61.0332 56.7773C59.5801 55.9922 58.8535 54.9346 58.8535 53.6045C58.8535 52.9131 59.0469 52.2979 59.4336 51.7588C59.8262 51.2139 60.3857 50.7891 61.1123 50.4844C61.8447 50.1797 62.665 50.0273 63.5732 50.0273C64.4873 50.0273 65.3018 50.1943 66.0166 50.5283C66.7314 50.8564 67.2852 51.3223 67.6777 51.9258C68.0762 52.5293 68.2754 53.2148 68.2754 53.9824H65.6387C65.6387 53.3965 65.4541 52.9424 65.085 52.6201C64.7158 52.292 64.1973 52.1279 63.5293 52.1279C62.8848 52.1279 62.3838 52.2656 62.0264 52.541C61.6689 52.8105 61.4902 53.168 61.4902 53.6133C61.4902 54.0293 61.6982 54.3779 62.1143 54.6592C62.5361 54.9404 63.1543 55.2041 63.9688 55.4502C65.4688 55.9014 66.5615 56.4609 67.2471 57.1289C67.9326 57.7969 68.2754 58.6289 68.2754 59.625C68.2754 60.7324 67.8564 61.6025 67.0186 62.2354C66.1807 62.8623 65.0527 63.1758 63.6348 63.1758C62.6504 63.1758 61.7539 62.9971 60.9453 62.6396C60.1367 62.2764 59.5186 61.7812 59.0908 61.1543C58.6689 60.5273 58.458 59.8008 58.458 58.9746H61.1035C61.1035 60.3867 61.9473 61.0928 63.6348 61.0928C64.2617 61.0928 64.751 60.9668 65.1025 60.7148C65.4541 60.457 65.6299 60.0996 65.6299 59.6426ZM72.3799 55.4766H73.7334C74.3779 55.4766 74.8555 55.3154 75.166 54.9932C75.4766 54.6709 75.6318 54.2432 75.6318 53.71C75.6318 53.1943 75.4766 52.793 75.166 52.5059C74.8613 52.2188 74.4395 52.0752 73.9004 52.0752C73.4141 52.0752 73.0068 52.21 72.6787 52.4795C72.3506 52.7432 72.1865 53.0889 72.1865 53.5166H69.6465C69.6465 52.8486 69.8252 52.251 70.1826 51.7236C70.5459 51.1904 71.0498 50.7744 71.6943 50.4756C72.3447 50.1768 73.0596 50.0273 73.8389 50.0273C75.1924 50.0273 76.2529 50.3525 77.0205 51.0029C77.7881 51.6475 78.1719 52.5381 78.1719 53.6748C78.1719 54.2607 77.9932 54.7998 77.6357 55.292C77.2783 55.7842 76.8096 56.1621 76.2295 56.4258C76.9502 56.6836 77.4863 57.0703 77.8379 57.5859C78.1953 58.1016 78.374 58.7109 78.374 59.4141C78.374 60.5508 77.958 61.4619 77.126 62.1475C76.2998 62.833 75.2041 63.1758 73.8389 63.1758C72.5615 63.1758 71.5156 62.8389 70.7012 62.165C69.8926 61.4912 69.4883 60.6006 69.4883 59.4932H72.0283C72.0283 59.9736 72.207 60.3662 72.5645 60.6709C72.9277 60.9756 73.373 61.1279 73.9004 61.1279C74.5039 61.1279 74.9756 60.9697 75.3154 60.6533C75.6611 60.3311 75.834 59.9062 75.834 59.3789C75.834 58.1016 75.1309 57.4629 73.7246 57.4629H72.3799V55.4766Z" fill="white"/>
<defs>
<filter id="filter0_d_179_240" x="0" y="0" width="123" height="125" filterUnits="userSpaceOnUse" color-interpolation-filters="sRGB">
<feFlood flood-opacity="0" result="BackgroundImageFix"/>
<feColorMatrix in="SourceAlpha" type="matrix" values="0 0 0 0 0 0 0 0 0 0 0 0 0 0 0 0 0 0 127 0" result="hardAlpha"/>
<feOffset dx="4" dy="6"/>
<feGaussianBlur stdDeviation="10"/>
<feComposite in2="hardAlpha" operator="out"/>
<feColorMatrix type="matrix" values="0 0 0 0 0 0 0 0 0 0 0 0 0 0 0 0 0 0 0.5 0"/>
<feBlend mode="normal" in2="BackgroundImageFix" result="effect1_dropShadow_179_240"/>
<feBlend mode="normal" in="SourceGraphic" in2="effect1_dropShadow_179_240" result="shape"/>
</filter>
</defs>
</svg>
