<svg width="123" height="125" viewBox="0 0 123 125" fill="none" xmlns="http://www.w3.org/2000/svg">
<g filter="url(#filter0_d_179_252)">
<ellipse cx="57.5" cy="56.5" rx="41.5" ry="42.5" fill="#757575"/>
</g>
<path d="M32.877 57.6865H28.9395V60.3525H33.5605V62H26.8887V52.0469H33.5469V53.708H28.9395V56.0801H32.877V57.6865ZM38.3252 55.4785L40.1914 52.0469H42.5498L39.6514 56.9824L42.625 62H40.2393L38.3252 58.5137L36.4111 62H34.0254L36.999 56.9824L34.1006 52.0469H36.459L38.3252 55.4785ZM45.7148 58.4932V62H43.6641V52.0469H47.5469C48.2943 52.0469 48.9505 52.1836 49.5156 52.457C50.0853 52.7305 50.5228 53.1201 50.8281 53.626C51.1335 54.1273 51.2861 54.6992 51.2861 55.3418C51.2861 56.3171 50.9512 57.0872 50.2812 57.6523C49.6159 58.2129 48.693 58.4932 47.5127 58.4932H45.7148ZM45.7148 56.832H47.5469C48.0892 56.832 48.5016 56.7044 48.7842 56.4492C49.0713 56.194 49.2148 55.8294 49.2148 55.3555C49.2148 54.8678 49.0713 54.4736 48.7842 54.1729C48.4971 53.8721 48.1006 53.7171 47.5947 53.708H45.7148V56.832ZM56.3857 58.3564H54.752V62H52.7012V52.0469H56.3994C57.5752 52.0469 58.4821 52.3089 59.1201 52.833C59.7581 53.3571 60.0771 54.0977 60.0771 55.0547C60.0771 55.7337 59.929 56.3011 59.6328 56.7568C59.3411 57.208 58.8968 57.568 58.2998 57.8369L60.4531 61.9043V62H58.252L56.3857 58.3564ZM54.752 56.6953H56.4062C56.9212 56.6953 57.32 56.5654 57.6025 56.3057C57.8851 56.0413 58.0264 55.679 58.0264 55.2188C58.0264 54.7493 57.8919 54.3802 57.623 54.1113C57.3587 53.8424 56.9508 53.708 56.3994 53.708H54.752V56.6953ZM67.6309 57.6865H63.6934V60.3525H68.3145V62H61.6426V52.0469H68.3008V53.708H63.6934V56.0801H67.6309V57.6865ZM74.6787 59.3887C74.6787 59.0013 74.542 58.7051 74.2686 58.5C73.9951 58.2904 73.5029 58.0716 72.792 57.8438C72.0811 57.6113 71.5182 57.3835 71.1035 57.1602C69.9733 56.5495 69.4082 55.7269 69.4082 54.6924C69.4082 54.1546 69.5586 53.6761 69.8594 53.2568C70.1647 52.833 70.5999 52.5026 71.165 52.2656C71.7347 52.0286 72.3727 51.9102 73.0791 51.9102C73.79 51.9102 74.4235 52.04 74.9795 52.2998C75.5355 52.555 75.9661 52.9173 76.2715 53.3867C76.5814 53.8561 76.7363 54.3893 76.7363 54.9863H74.6855C74.6855 54.5306 74.542 54.1774 74.2549 53.9268C73.9678 53.6715 73.5645 53.5439 73.0449 53.5439C72.5436 53.5439 72.154 53.651 71.876 53.8652C71.598 54.0749 71.459 54.3529 71.459 54.6992C71.459 55.0228 71.6208 55.2939 71.9443 55.5127C72.2725 55.7314 72.7533 55.9365 73.3867 56.1279C74.5534 56.4788 75.4033 56.9141 75.9365 57.4336C76.4697 57.9531 76.7363 58.6003 76.7363 59.375C76.7363 60.2363 76.4105 60.9131 75.7588 61.4053C75.1071 61.8929 74.2298 62.1367 73.127 62.1367C72.3613 62.1367 71.6641 61.9977 71.0352 61.7197C70.4062 61.4372 69.9255 61.0521 69.5928 60.5645C69.2646 60.0768 69.1006 59.5117 69.1006 58.8691H71.1582C71.1582 59.9674 71.8145 60.5166 73.127 60.5166C73.6146 60.5166 73.9951 60.4186 74.2686 60.2227C74.542 60.0221 74.6787 59.7441 74.6787 59.3887ZM83.292 59.3887C83.292 59.0013 83.1553 58.7051 82.8818 58.5C82.6084 58.2904 82.1162 58.0716 81.4053 57.8438C80.6943 57.6113 80.1315 57.3835 79.7168 57.1602C78.5866 56.5495 78.0215 55.7269 78.0215 54.6924C78.0215 54.1546 78.1719 53.6761 78.4727 53.2568C78.778 52.833 79.2132 52.5026 79.7783 52.2656C80.348 52.0286 80.986 51.9102 81.6924 51.9102C82.4033 51.9102 83.0368 52.04 83.5928 52.2998C84.1488 52.555 84.5794 52.9173 84.8848 53.3867C85.1947 53.8561 85.3496 54.3893 85.3496 54.9863H83.2988C83.2988 54.5306 83.1553 54.1774 82.8682 53.9268C82.5811 53.6715 82.1777 53.5439 81.6582 53.5439C81.1569 53.5439 80.7673 53.651 80.4893 53.8652C80.2113 54.0749 80.0723 54.3529 80.0723 54.6992C80.0723 55.0228 80.234 55.2939 80.5576 55.5127C80.8857 55.7314 81.3665 55.9365 82 56.1279C83.1667 56.4788 84.0166 56.9141 84.5498 57.4336C85.083 57.9531 85.3496 58.6003 85.3496 59.375C85.3496 60.2363 85.0238 60.9131 84.3721 61.4053C83.7204 61.8929 82.8431 62.1367 81.7402 62.1367C80.9746 62.1367 80.2773 61.9977 79.6484 61.7197C79.0195 61.4372 78.5387 61.0521 78.2061 60.5645C77.8779 60.0768 77.7139 59.5117 77.7139 58.8691H79.7715C79.7715 59.9674 80.4277 60.5166 81.7402 60.5166C82.2279 60.5166 82.6084 60.4186 82.8818 60.2227C83.1553 60.0221 83.292 59.7441 83.292 59.3887Z" fill="white"/>
<defs>
<filter id="filter0_d_179_252" x="0" y="0" width="123" height="125" filterUnits="userSpaceOnUse" color-interpolation-filters="sRGB">
<feFlood flood-opacity="0" result="BackgroundImageFix"/>
<feColorMatrix in="SourceAlpha" type="matrix" values="0 0 0 0 0 0 0 0 0 0 0 0 0 0 0 0 0 0 127 0" result="hardAlpha"/>
<feOffset dx="4" dy="6"/>
<feGaussianBlur stdDeviation="10"/>
<feComposite in2="hardAlpha" operator="out"/>
<feColorMatrix type="matrix" values="0 0 0 0 0 0 0 0 0 0 0 0 0 0 0 0 0 0 0.5 0"/>
<feBlend mode="normal" in2="BackgroundImageFix" result="effect1_dropShadow_179_252"/>
<feBlend mode="normal" in="SourceGraphic" in2="effect1_dropShadow_179_252" result="shape"/>
</filter>
</defs>
</svg>
