<svg width="52" height="52" viewBox="0 0 52 52" fill="none" xmlns="http://www.w3.org/2000/svg">
<g filter="url(#filter0_di_63_787)">
<circle cx="26" cy="22" r="22" fill="url(#paint0_linear_63_787)"/>
<circle cx="26" cy="22" r="21.5" stroke="white"/>
</g>
<mask id="mask0_63_787" style="mask-type:alpha" maskUnits="userSpaceOnUse" x="4" y="0" width="44" height="44">
<circle cx="26" cy="22" r="22" fill="url(#paint1_linear_63_787)"/>
</mask>
<g mask="url(#mask0_63_787)">
<path d="M21.7188 44V22.7598H17.7881V17.584H21.7188V15.3379C21.7188 12.3757 22.5651 10.0807 24.2578 8.45312C25.9668 6.80924 28.3512 5.9873 31.4111 5.9873C32.3877 5.9873 33.584 6.15007 35 6.47559L34.9268 11.9443C34.3408 11.7979 33.6247 11.7246 32.7783 11.7246C30.1253 11.7246 28.7988 12.9697 28.7988 15.46V17.584H34.0479V22.7598H28.7988V44H21.7188Z" fill="white"/>
</g>
<defs>
<filter id="filter0_di_63_787" x="-6" y="0" width="58" height="54" filterUnits="userSpaceOnUse" color-interpolation-filters="sRGB">
<feFlood flood-opacity="0" result="BackgroundImageFix"/>
<feColorMatrix in="SourceAlpha" type="matrix" values="0 0 0 0 0 0 0 0 0 0 0 0 0 0 0 0 0 0 127 0" result="hardAlpha"/>
<feOffset dy="4"/>
<feGaussianBlur stdDeviation="2"/>
<feComposite in2="hardAlpha" operator="out"/>
<feColorMatrix type="matrix" values="0 0 0 0 0 0 0 0 0 0 0 0 0 0 0 0 0 0 0.25 0"/>
<feBlend mode="normal" in2="BackgroundImageFix" result="effect1_dropShadow_63_787"/>
<feBlend mode="normal" in="SourceGraphic" in2="effect1_dropShadow_63_787" result="shape"/>
<feColorMatrix in="SourceAlpha" type="matrix" values="0 0 0 0 0 0 0 0 0 0 0 0 0 0 0 0 0 0 127 0" result="hardAlpha"/>
<feOffset dx="-10" dy="10"/>
<feGaussianBlur stdDeviation="10"/>
<feComposite in2="hardAlpha" operator="arithmetic" k2="-1" k3="1"/>
<feColorMatrix type="matrix" values="0 0 0 0 1 0 0 0 0 1 0 0 0 0 1 0 0 0 0.25 0"/>
<feBlend mode="normal" in2="shape" result="effect2_innerShadow_63_787"/>
</filter>
<linearGradient id="paint0_linear_63_787" x1="12.7539" y1="4.95288" x2="42.1257" y2="41.6963" gradientUnits="userSpaceOnUse">
<stop stop-color="#2B8CFF"/>
<stop offset="0.802083" stop-color="#001AFF"/>
</linearGradient>
<linearGradient id="paint1_linear_63_787" x1="12.7539" y1="4.95288" x2="42.1257" y2="41.6963" gradientUnits="userSpaceOnUse">
<stop stop-color="#2B8CFF"/>
<stop offset="0.802083" stop-color="#001AFF"/>
</linearGradient>
</defs>
</svg>
