<svg width="52" height="51" viewBox="0 0 52 51" fill="none" xmlns="http://www.w3.org/2000/svg">
<g filter="url(#filter0_di_63_779)">
<path d="M26 0C13.8494 0 4 9.85151 4 22.0047C4 31.7825 10.3811 40.0607 19.202 42.9268H32.798C41.6189 40.0607 48 31.7825 48 22.0047C48 9.85151 38.1506 0 26 0Z" fill="url(#paint0_linear_63_779)"/>
<path d="M4.5 22.0047C4.5 10.1275 14.1256 0.5 26 0.5C37.8744 0.5 47.5 10.1275 47.5 22.0047C47.5 31.5315 41.3009 39.6031 32.7183 42.4268H19.2817C10.6991 39.6031 4.5 31.5315 4.5 22.0047Z" stroke="white"/>
</g>
<path opacity="0.05" d="M32.5633 41.797L32.5523 35.4234C32.5523 34.3911 32.3116 33.3831 31.85 32.4696C38.0214 31.2241 41.0245 27.5579 41.0245 21.2821C41.0245 18.8032 40.2969 16.6145 38.8627 14.7743C38.9721 14.4258 39.053 14.0652 39.1034 13.6959C39.309 12.191 39.0782 11.2071 38.8922 10.4156L38.8627 10.2881C38.6592 9.41305 38.4152 8.78865 38.4054 8.76227L38.2839 8.45227L38.1625 8.14227L37.8321 8.10709L37.5006 8.07191C37.5006 8.07191 37.2829 8.04883 36.9525 8.04883C36.4941 8.04883 35.8147 8.095 35.1725 8.31376L34.9581 8.38631C34.1485 8.66003 33.3838 8.91947 32.3138 9.56145C32.0009 9.74943 31.6585 9.96379 31.292 10.2034C29.6357 9.7912 27.8535 9.58124 25.9882 9.58124C24.1043 9.58124 22.3068 9.7923 20.6395 10.2089C20.2686 9.96709 19.924 9.75053 19.6089 9.56145C18.5389 8.91947 17.7742 8.66113 16.9646 8.38631L16.7502 8.31376C16.1102 8.095 15.4297 8.04883 14.9713 8.04883C14.6409 8.04883 14.4232 8.07191 14.4232 8.07191L14.0928 8.10709L13.7646 8.14117L13.6421 8.45007L13.5185 8.76117C13.5075 8.78975 13.2635 9.41415 13.0601 10.2903L13.0305 10.4167C12.8445 11.2071 12.6137 12.1921 12.8194 13.6959C12.8719 14.0762 12.9561 14.4489 13.071 14.8073C11.6652 16.6387 10.953 18.8153 10.953 21.2821C10.953 27.5425 13.9593 31.2065 20.1395 32.4619C19.9273 32.8884 19.7621 33.3391 19.645 33.8074C19.4295 33.881 19.2315 33.9305 19.0564 33.958C18.796 33.9976 18.5236 34.0174 18.2479 34.0174C17.4974 34.0174 16.9077 33.8701 16.678 33.7326C16.3356 33.5282 15.724 32.9335 15.1311 32.0639C14.6245 31.3219 13.8346 30.3512 12.9517 29.9456C12.1881 29.5949 11.3796 29.3937 10.732 29.3937C10.581 29.3937 10.4421 29.4047 10.3206 29.4245C9.755 29.5147 9.28238 29.8269 9.02529 30.282C8.8032 30.6744 8.76819 31.1317 8.92901 31.5363C9.16861 32.1387 9.86003 32.6191 10.3983 32.9159C10.663 33.0621 11.2352 33.5963 11.5689 34.135C11.8194 34.5395 11.9354 34.8275 12.0962 35.2255C12.1914 35.4618 12.2964 35.7191 12.4387 36.0302C12.9528 37.1536 14.5578 38.1452 14.7394 38.254C15.6212 38.785 17.1036 38.9554 18.1932 39.0048L18.3278 39.0081H18.3289C18.5915 39.0081 18.9525 38.9829 19.4273 38.9301V41.8025C19.4295 42.3841 18.8398 42.516 18.0598 42.5039L18.6582 42.7061C20.9502 43.5295 23.4117 44 25.9882 44C28.5646 44 31.0262 43.5295 33.3214 42.7072L34.0905 42.4192C33.3127 42.3928 32.5698 42.2653 32.5633 41.797Z" fill="black"/>
<path opacity="0.07" d="M33.4141 42.6772C32.9696 42.7288 32.0118 42.5573 32.0118 41.8029V35.4203C32.0118 34.2172 31.6527 33.0548 30.9871 32.064C37.4622 31.0116 40.4879 27.5629 40.4879 21.2738C40.4879 18.8137 39.737 16.6616 38.2559 14.8713C38.4058 14.4699 38.5109 14.0465 38.5711 13.61C38.7627 12.2068 38.5536 11.316 38.3697 10.5297L38.3401 10.4021C38.1453 9.56528 37.9154 8.97584 37.9056 8.95165L37.784 8.64153L37.4524 8.60634C37.4524 8.60634 37.2575 8.58545 36.9608 8.58545C36.5438 8.58545 35.9275 8.62614 35.356 8.82188L35.1415 8.89446C34.3599 9.15949 33.6209 9.40912 32.6007 10.0206C32.2373 10.2383 31.8322 10.4945 31.3954 10.7837C29.7173 10.3428 27.9012 10.1184 25.991 10.1184C24.0621 10.1184 22.2307 10.3439 20.5405 10.7892C20.0994 10.4978 19.6922 10.2405 19.3265 10.0206C18.3063 9.40912 17.5674 9.15839 16.7858 8.89446L16.5712 8.82188C16.0009 8.62724 15.3835 8.58545 14.9664 8.58545C14.6697 8.58545 14.4749 8.60634 14.4749 8.60634L14.1443 8.64153L14.0206 8.95275C14.0107 8.97694 13.7808 9.56638 13.586 10.4032L13.5564 10.5308C13.3714 11.3171 13.1623 12.2068 13.355 13.61C13.4163 14.0575 13.5258 14.4908 13.6812 14.901C12.2286 16.6825 11.4929 18.8236 11.4929 21.2738C11.4929 27.5453 14.5208 30.9929 21.0014 32.0574C20.569 32.7062 20.2669 33.4375 20.1114 34.2172C19.7502 34.3601 19.4229 34.4547 19.136 34.4987C18.8481 34.5427 18.5482 34.5647 18.245 34.5647C17.4896 34.5647 16.7639 34.4228 16.395 34.2029C15.9133 33.9159 15.2379 33.1978 14.6741 32.3719C14.291 31.811 13.528 30.8136 12.7168 30.4419C12.0217 30.123 11.2959 29.9394 10.7234 29.9394C10.603 29.9394 10.4935 29.9482 10.3972 29.9636C9.99651 30.0273 9.66591 30.2407 9.49076 30.5508C9.35064 30.7971 9.32765 31.082 9.42617 31.3294C9.62212 31.822 10.3479 32.2641 10.6511 32.4313C11.0178 32.6336 11.6571 33.2495 12.0239 33.8433C12.2986 34.2876 12.4289 34.6098 12.5942 35.0167C12.6872 35.2465 12.7891 35.4972 12.927 35.7997C13.2893 36.5903 14.4081 37.4184 15.0124 37.7824C15.8378 38.2795 17.3703 38.418 18.211 38.4554L18.3325 38.4576C18.6599 38.4576 19.2083 38.4081 19.9691 38.3092V41.8029C19.9691 42.6596 18.8843 42.6937 18.6183 42.6937C18.5843 42.6937 19.1689 42.896 19.1689 42.896C21.3178 43.6042 23.6068 44.0001 25.991 44.0001C28.3752 44.0001 30.6642 43.6042 32.812 42.8971C32.812 42.8971 33.448 42.6728 33.4141 42.6772Z" fill="black"/>
<path d="M39.9511 21.2652C39.9511 18.7239 39.0944 16.6161 37.6319 14.9638C37.7907 14.6062 37.9562 14.1266 38.0383 13.5237C38.2267 12.1486 38.0044 11.3235 37.8159 10.516C37.6275 9.70856 37.4051 9.1409 37.4051 9.1409C37.4051 9.1409 36.395 9.03749 35.5394 9.33012C34.6838 9.62275 33.9476 9.84607 32.886 10.4819C32.3897 10.779 31.8902 11.1046 31.4947 11.3686C29.8043 10.8978 27.9451 10.6558 25.9896 10.6558C24.0165 10.6558 22.141 10.8989 20.4385 11.373C20.0419 11.1079 19.5391 10.7801 19.0395 10.4808C17.9779 9.84497 17.2417 9.62165 16.3861 9.32902C15.5305 9.03639 14.5204 9.1398 14.5204 9.1398C14.5204 9.1398 14.298 9.70746 14.1096 10.5149C13.9212 11.3224 13.6988 12.1475 13.8872 13.5226C13.9716 14.1409 14.1425 14.6293 14.3057 14.9891C12.8706 16.6315 12.0292 18.7261 12.0292 21.2641C12.0292 27.846 15.57 30.8504 22.0216 31.6436C21.2689 32.4423 20.7639 33.4654 20.5941 34.604C20.1701 34.791 19.6815 34.967 19.2115 35.0374C18.002 35.2212 16.7236 35.0374 16.1079 34.6711C15.4922 34.3048 14.7614 33.4797 14.2137 32.6766C13.7514 31.999 13.0842 31.2124 12.4794 30.9351C11.6808 30.5688 10.9041 30.4313 10.4713 30.4995C10.0375 30.5688 9.83263 30.8889 9.92356 31.1189C10.0145 31.3477 10.4483 31.692 10.9052 31.9439C11.362 32.1959 12.0697 32.8834 12.4805 33.5479C12.9385 34.2894 13.0283 34.7173 13.4161 35.5644C13.6889 36.1607 14.6223 36.9054 15.2873 37.3059C15.8581 37.6502 16.9985 37.846 18.2321 37.9021C18.6583 37.9219 19.6651 37.7965 20.5141 37.6755V41.8009C20.5141 42.5039 19.8732 43.0385 19.2093 42.9153C21.3401 43.6348 23.6156 44 25.9896 44C28.3625 44 30.638 43.6348 32.771 42.9175C32.1082 43.0396 31.4673 42.505 31.4673 41.802V35.417C31.4673 33.9549 30.8899 32.6337 29.9631 31.6491C36.3676 30.8768 39.9511 27.944 39.9511 21.2652ZM12.0095 31.5985C11.8407 31.5116 11.7498 31.351 11.8068 31.2377C11.8638 31.1244 12.0478 31.1035 12.2165 31.1904C12.3852 31.2773 12.4762 31.4379 12.4192 31.5512C12.3622 31.6645 12.1782 31.6854 12.0095 31.5985ZM13.3372 32.4291C13.2485 32.5259 13.0579 32.4951 12.9111 32.3609C12.7643 32.2267 12.7172 32.0386 12.8059 31.9417C12.8947 31.8449 13.0853 31.8757 13.2321 32.01C13.3789 32.1442 13.426 32.3323 13.3372 32.4291ZM14.1633 33.8042C14.0515 33.8834 13.862 33.8097 13.7404 33.6392C13.6188 33.4687 13.6111 33.2652 13.7229 33.186C13.8346 33.1068 14.0242 33.1805 14.1458 33.351C14.2663 33.5215 14.275 33.725 14.1633 33.8042ZM15.3498 34.8394C15.2742 34.9626 15.0594 34.9681 14.871 34.8526C14.6826 34.7371 14.5905 34.5435 14.6661 34.4203C14.7417 34.2971 14.9565 34.2916 15.1449 34.4071C15.3333 34.5226 15.4253 34.7162 15.3498 34.8394ZM16.4716 35.8526C16.2382 35.824 16.0651 35.6777 16.0849 35.5259C16.1035 35.3741 16.3083 35.2751 16.5406 35.3037C16.7739 35.3323 16.947 35.4786 16.9273 35.6304C16.9087 35.7811 16.7049 35.8812 16.4716 35.8526ZM18.2803 36.1156C18.0316 36.1013 17.8377 35.9582 17.8476 35.7976C17.8574 35.637 18.0667 35.5171 18.3154 35.5314C18.5641 35.5457 18.758 35.6887 18.7481 35.8493C18.7382 36.011 18.529 36.1299 18.2803 36.1156ZM19.9872 35.9439C19.722 35.9439 19.5073 35.8053 19.5073 35.6348C19.5073 35.4643 19.722 35.3257 19.9872 35.3257C20.2523 35.3257 20.467 35.4643 20.467 35.6348C20.467 35.8053 20.2512 35.9439 19.9872 35.9439Z" fill="white"/>
<defs>
<filter id="filter0_di_63_779" x="-6" y="0" width="58" height="52.9268" filterUnits="userSpaceOnUse" color-interpolation-filters="sRGB">
<feFlood flood-opacity="0" result="BackgroundImageFix"/>
<feColorMatrix in="SourceAlpha" type="matrix" values="0 0 0 0 0 0 0 0 0 0 0 0 0 0 0 0 0 0 127 0" result="hardAlpha"/>
<feOffset dy="4"/>
<feGaussianBlur stdDeviation="2"/>
<feComposite in2="hardAlpha" operator="out"/>
<feColorMatrix type="matrix" values="0 0 0 0 0 0 0 0 0 0 0 0 0 0 0 0 0 0 0.25 0"/>
<feBlend mode="normal" in2="BackgroundImageFix" result="effect1_dropShadow_63_779"/>
<feBlend mode="normal" in="SourceGraphic" in2="effect1_dropShadow_63_779" result="shape"/>
<feColorMatrix in="SourceAlpha" type="matrix" values="0 0 0 0 0 0 0 0 0 0 0 0 0 0 0 0 0 0 127 0" result="hardAlpha"/>
<feOffset dx="-10" dy="10"/>
<feGaussianBlur stdDeviation="10"/>
<feComposite in2="hardAlpha" operator="arithmetic" k2="-1" k3="1"/>
<feColorMatrix type="matrix" values="0 0 0 0 1 0 0 0 0 1 0 0 0 0 1 0 0 0 0.25 0"/>
<feBlend mode="normal" in2="shape" result="effect2_innerShadow_63_779"/>
</filter>
<linearGradient id="paint0_linear_63_779" x1="4" y1="21.4634" x2="48" y2="21.4634" gradientUnits="userSpaceOnUse">
<stop stop-color="#4C4C4C"/>
<stop offset="1" stop-color="#343434"/>
</linearGradient>
</defs>
</svg>
