<svg width="125" height="125" viewBox="0 0 125 125" fill="none" xmlns="http://www.w3.org/2000/svg">
<g filter="url(#filter0_d_179_239)">
<circle cx="58.5" cy="56.5" r="42.5" fill="#FF3D00"/>
</g>
<path d="M38.5576 66H35.9209V60.5156H30.7793V66H28.1426V53.2031H30.7793V58.3887H35.9209V53.2031H38.5576V66ZM50.2383 55.3389H46.3184V66H43.6816V55.3389H39.8145V53.2031H50.2383V55.3389ZM55.1953 53.2031L58.4824 62.4844L61.752 53.2031H65.2148V66H62.5693V62.502L62.833 56.4639L59.3789 66H57.5684L54.123 56.4727L54.3867 62.502V66H51.75V53.2031H55.1953ZM70.1543 63.8818H75.7529V66H67.5176V53.2031H70.1543V63.8818ZM77.3789 59.707L78.1172 53.2031H85.2891V55.3213H80.2002L79.8838 58.0723C80.4873 57.75 81.1289 57.5889 81.8086 57.5889C83.0273 57.5889 83.9824 57.9668 84.6738 58.7227C85.3652 59.4785 85.7109 60.5361 85.7109 61.8955C85.7109 62.7217 85.5352 63.4629 85.1836 64.1191C84.8379 64.7695 84.3398 65.2764 83.6895 65.6396C83.0391 65.9971 82.2715 66.1758 81.3867 66.1758C80.6133 66.1758 79.8955 66.0205 79.2334 65.71C78.5713 65.3936 78.0469 64.9512 77.6602 64.3828C77.2793 63.8145 77.0771 63.167 77.0537 62.4404H79.5674C79.6201 62.9736 79.8047 63.3896 80.1211 63.6885C80.4434 63.9814 80.8623 64.1279 81.3779 64.1279C81.9521 64.1279 82.3945 63.9229 82.7051 63.5127C83.0156 63.0967 83.1709 62.5107 83.1709 61.7549C83.1709 61.0283 82.9922 60.4717 82.6348 60.085C82.2773 59.6982 81.7705 59.5049 81.1143 59.5049C80.5107 59.5049 80.0215 59.6631 79.6465 59.9795L79.4004 60.208L77.3789 59.707Z" fill="white"/>
<defs>
<filter id="filter0_d_179_239" x="0" y="0" width="125" height="125" filterUnits="userSpaceOnUse" color-interpolation-filters="sRGB">
<feFlood flood-opacity="0" result="BackgroundImageFix"/>
<feColorMatrix in="SourceAlpha" type="matrix" values="0 0 0 0 0 0 0 0 0 0 0 0 0 0 0 0 0 0 127 0" result="hardAlpha"/>
<feOffset dx="4" dy="6"/>
<feGaussianBlur stdDeviation="10"/>
<feComposite in2="hardAlpha" operator="out"/>
<feColorMatrix type="matrix" values="0 0 0 0 0 0 0 0 0 0 0 0 0 0 0 0 0 0 0.5 0"/>
<feBlend mode="normal" in2="BackgroundImageFix" result="effect1_dropShadow_179_239"/>
<feBlend mode="normal" in="SourceGraphic" in2="effect1_dropShadow_179_239" result="shape"/>
</filter>
</defs>
</svg>
