<svg width="124" height="125" viewBox="0 0 124 125" fill="none" xmlns="http://www.w3.org/2000/svg">
<g filter="url(#filter0_d_179_241)">
<ellipse cx="58" cy="56.5" rx="42" ry="42.5" fill="#FFB800"/>
</g>
<path d="M51.7524 50.2266H55.4146V62.5312C55.4146 63.6624 55.1623 64.6634 54.6577 65.5342C54.1613 66.3968 53.4574 67.0641 52.5459 67.5361C51.6344 68.0081 50.605 68.2441 49.4575 68.2441C47.5776 68.2441 46.1128 67.7681 45.063 66.8159C44.0132 65.8556 43.4883 64.5007 43.4883 62.751H47.1748C47.1748 63.6217 47.3579 64.2646 47.7241 64.6797C48.0903 65.0947 48.6681 65.3022 49.4575 65.3022C50.1574 65.3022 50.7148 65.0622 51.1299 64.582C51.5449 64.1019 51.7524 63.4183 51.7524 62.5312V50.2266ZM67.7681 63.3369C67.7681 62.6452 67.5239 62.1162 67.0356 61.75C66.5474 61.3757 65.6685 60.985 64.3989 60.5781C63.1294 60.1631 62.1243 59.7562 61.3838 59.3574C59.3656 58.2669 58.3564 56.798 58.3564 54.9507C58.3564 53.9904 58.625 53.1359 59.1621 52.3872C59.7074 51.6304 60.4845 51.0404 61.4937 50.6172C62.5109 50.194 63.6502 49.9824 64.9116 49.9824C66.1812 49.9824 67.3123 50.2144 68.3052 50.6782C69.298 51.134 70.0671 51.7809 70.6123 52.6191C71.1657 53.4574 71.4424 54.4095 71.4424 55.4756H67.7803C67.7803 54.6618 67.5239 54.0311 67.0112 53.5835C66.4985 53.1278 65.7783 52.8999 64.8506 52.8999C63.9554 52.8999 63.2596 53.0911 62.7632 53.4736C62.2668 53.848 62.0186 54.3444 62.0186 54.9629C62.0186 55.5407 62.3075 56.0249 62.8853 56.4155C63.4712 56.8062 64.3298 57.1724 65.4609 57.5142C67.5443 58.1408 69.062 58.918 70.0142 59.8457C70.9663 60.7734 71.4424 61.929 71.4424 63.3125C71.4424 64.8506 70.8605 66.0591 69.6968 66.938C68.533 67.8088 66.9665 68.2441 64.9971 68.2441C63.6299 68.2441 62.3848 67.9959 61.2617 67.4995C60.1387 66.995 59.2801 66.3073 58.686 65.4365C58.1001 64.5658 57.8071 63.5566 57.8071 62.4092H61.4814C61.4814 64.3704 62.6533 65.3511 64.9971 65.3511C65.8678 65.3511 66.5474 65.1761 67.0356 64.8262C67.5239 64.4681 67.7681 63.9717 67.7681 63.3369Z" fill="white"/>
<defs>
<filter id="filter0_d_179_241" x="0" y="0" width="124" height="125" filterUnits="userSpaceOnUse" color-interpolation-filters="sRGB">
<feFlood flood-opacity="0" result="BackgroundImageFix"/>
<feColorMatrix in="SourceAlpha" type="matrix" values="0 0 0 0 0 0 0 0 0 0 0 0 0 0 0 0 0 0 127 0" result="hardAlpha"/>
<feOffset dx="4" dy="6"/>
<feGaussianBlur stdDeviation="10"/>
<feComposite in2="hardAlpha" operator="out"/>
<feColorMatrix type="matrix" values="0 0 0 0 0 0 0 0 0 0 0 0 0 0 0 0 0 0 0.5 0"/>
<feBlend mode="normal" in2="BackgroundImageFix" result="effect1_dropShadow_179_241"/>
<feBlend mode="normal" in="SourceGraphic" in2="effect1_dropShadow_179_241" result="shape"/>
</filter>
</defs>
</svg>
