<svg width="63" height="63" viewBox="0 0 63 63" fill="none" xmlns="http://www.w3.org/2000/svg">
<circle cx="31.5" cy="31.5" r="31.5" fill="white"/>
<path d="M22.6548 17.6953H28.0747V35.9062C28.0747 37.5804 27.7013 39.0618 26.9546 40.3506C26.2199 41.6273 25.1781 42.6149 23.8291 43.3135C22.4801 44.012 20.9565 44.3613 19.2583 44.3613C16.4761 44.3613 14.3081 43.6567 12.7544 42.2476C11.2007 40.8263 10.4238 38.821 10.4238 36.2314H15.8799C15.8799 37.5202 16.1509 38.4717 16.6929 39.0859C17.2349 39.7002 18.09 40.0073 19.2583 40.0073C20.2941 40.0073 21.1191 39.652 21.7334 38.9414C22.3477 38.2308 22.6548 37.2191 22.6548 35.9062V17.6953ZM42.4556 34.3706H38.1377V44H32.7178V17.6953H42.4917C45.5991 17.6953 47.9959 18.3879 49.6821 19.7729C51.3683 21.158 52.2114 23.1152 52.2114 25.6445C52.2114 27.4391 51.82 28.9386 51.0371 30.1431C50.2663 31.3354 49.092 32.2869 47.5142 32.9976L53.2051 43.7471V44H47.3877L42.4556 34.3706ZM38.1377 29.9805H42.5098C43.8708 29.9805 44.9246 29.6372 45.6714 28.9507C46.4181 28.2521 46.7915 27.2946 46.7915 26.0781C46.7915 24.8376 46.4362 23.862 45.7256 23.1514C45.027 22.4408 43.9491 22.0854 42.4917 22.0854H38.1377V29.9805Z" fill="#080807"/>
</svg>
