<svg width="125" height="125" viewBox="0 0 125 125" fill="none" xmlns="http://www.w3.org/2000/svg">
<g filter="url(#filter0_d_179_246)">
<circle cx="58.5" cy="56.5" r="42.5" fill="#039200"/>
</g>
<path d="M28.0343 38.8646L58.1358 22.8647L88.2373 38.8646V70.6559L58.1358 86.6557L28.0343 70.6559V38.8646Z" fill="#005709" stroke="#005709" stroke-width="3"/>
<path d="M58.1364 88.3542L26.2798 37.9629V71.5571L58.1364 88.3542Z" fill="url(#paint0_linear_179_246)"/>
<path d="M37.864 55.9186L26.2798 71.5573V38.1787L37.864 55.9186Z" fill="url(#paint1_linear_179_246)"/>
<path d="M89.9918 70.9779L58.1353 21.1658L89.9918 37.9629V70.9779Z" fill="url(#paint2_linear_179_246)"/>
<path d="M75.5116 48.3887L89.9918 37.9629L58.1353 21.1658L75.5116 48.3887Z" fill="url(#paint3_linear_179_246)"/>
<defs>
<filter id="filter0_d_179_246" x="0" y="0" width="125" height="125" filterUnits="userSpaceOnUse" color-interpolation-filters="sRGB">
<feFlood flood-opacity="0" result="BackgroundImageFix"/>
<feColorMatrix in="SourceAlpha" type="matrix" values="0 0 0 0 0 0 0 0 0 0 0 0 0 0 0 0 0 0 127 0" result="hardAlpha"/>
<feOffset dx="4" dy="6"/>
<feGaussianBlur stdDeviation="10"/>
<feComposite in2="hardAlpha" operator="out"/>
<feColorMatrix type="matrix" values="0 0 0 0 0 0 0 0 0 0 0 0 0 0 0 0 0 0 0.5 0"/>
<feBlend mode="normal" in2="BackgroundImageFix" result="effect1_dropShadow_179_246"/>
<feBlend mode="normal" in="SourceGraphic" in2="effect1_dropShadow_179_246" result="shape"/>
</filter>
<linearGradient id="paint0_linear_179_246" x1="26.2798" y1="38.5421" x2="55.2403" y2="87.1958" gradientUnits="userSpaceOnUse">
<stop stop-color="#07350B"/>
<stop offset="1" stop-color="#005709"/>
</linearGradient>
<linearGradient id="paint1_linear_179_246" x1="26.2798" y1="38.5421" x2="26.2798" y2="69.8195" gradientUnits="userSpaceOnUse">
<stop stop-color="#005709"/>
<stop offset="1" stop-color="#0F6416"/>
</linearGradient>
<linearGradient id="paint2_linear_179_246" x1="58.7145" y1="21.1658" x2="89.9918" y2="70.9779" gradientUnits="userSpaceOnUse">
<stop stop-color="#07350B"/>
<stop offset="1" stop-color="#005709"/>
</linearGradient>
<linearGradient id="paint3_linear_179_246" x1="58.7145" y1="22.3242" x2="81.8829" y2="44.9134" gradientUnits="userSpaceOnUse">
<stop stop-color="#0F6416"/>
<stop offset="0.0001" stop-color="#005709"/>
<stop offset="1" stop-color="#0F6416"/>
</linearGradient>
</defs>
</svg>
