<svg width="123" height="125" viewBox="0 0 123 125" fill="none" xmlns="http://www.w3.org/2000/svg">
<g filter="url(#filter0_d_179_245)">
<ellipse cx="57.5" cy="56.5" rx="41.5" ry="42.5" fill="#FF288F"/>
</g>
<path d="M51.35 48.16C51.35 48.6 51.17 49.11 50.81 49.69C50.51 50.23 50.17 50.6 49.79 50.8C49.43 51 49.25 50.98 49.25 50.74C49.25 50.72 49.36 50.6 49.58 50.38C50.24 49.76 50.57 49.25 50.57 48.85C50.57 47.99 49.72 47.56 48.02 47.56C47.3 47.56 46.35 47.7 45.17 47.98C43.99 48.24 42.85 48.67 41.75 49.27C40.47 49.97 39.83 50.58 39.83 51.1C39.83 51.52 40.22 51.92 41 52.3C41.42 52.5 42.25 52.84 43.49 53.32C44.75 53.78 45.76 54.19 46.52 54.55C47.3 54.89 48.03 55.38 48.71 56.02C49.41 56.66 49.76 57.37 49.76 58.15C49.76 58.93 49.3 59.78 48.38 60.7C46.98 62.04 45.16 63.15 42.92 64.03C40.68 64.93 38.76 65.38 37.16 65.38C34 65.38 32.42 64.49 32.42 62.71C32.42 60.93 33.39 59.42 35.33 58.18C36.93 57.08 38.61 56.53 40.37 56.53C40.79 56.53 40.98 56.6 40.94 56.74C40.9 56.88 40.6 56.96 40.04 56.98C39.48 56.98 38.76 57.17 37.88 57.55C37 57.91 36.18 58.44 35.42 59.14C34.42 60.04 33.92 60.94 33.92 61.84C33.92 62.4 34.19 62.9 34.73 63.34C35.27 63.78 36.3 64 37.82 64C39.34 64 40.84 63.76 42.32 63.28C45.52 62.22 47.52 61.06 48.32 59.8C48.64 59.34 48.8 58.95 48.8 58.63C48.8 57.71 48.24 56.99 47.12 56.47C45.82 55.87 44 55.18 41.66 54.4C40.76 54.1 39.99 53.71 39.35 53.23C38.73 52.73 38.42 52.14 38.42 51.46C38.42 50.76 38.79 50.08 39.53 49.42C40.29 48.74 41.2 48.2 42.26 47.8C44.54 46.94 46.47 46.51 48.05 46.51C50.25 46.51 51.35 47.06 51.35 48.16ZM52.4539 64.33C52.1339 64.33 51.7839 64.23 51.4039 64.03C51.0439 63.85 50.7339 63.59 50.4739 63.25C50.2139 62.89 50.0839 62.51 50.0839 62.11C50.0839 61.71 50.1739 61.33 50.3539 60.97C50.7539 60.13 51.3939 59.32 52.2739 58.54C53.1739 57.74 54.1039 57.06 55.0639 56.5C56.0239 55.94 56.7839 55.59 57.3439 55.45C57.9039 55.31 58.4439 55.24 58.9639 55.24C59.5039 55.24 59.9639 55.38 60.3439 55.66C60.7239 55.92 60.9139 56.2 60.9139 56.5C60.9139 56.6 60.9039 56.66 60.8839 56.68C60.8639 56.7 60.8139 56.69 60.7339 56.65C60.4939 56.27 59.9939 56.08 59.2339 56.08C58.4939 56.08 57.6439 56.33 56.6839 56.83C55.7439 57.31 54.8539 57.92 54.0139 58.66C53.3139 59.32 52.6939 60.07 52.1539 60.91C51.6339 61.73 51.3739 62.33 51.3739 62.71C51.3739 63.45 51.5839 63.82 52.0039 63.82C52.4239 63.82 53.0639 63.48 53.9239 62.8C55.3439 61.6 56.3139 60.72 56.8339 60.16C58.6739 58.18 59.6639 57.19 59.8039 57.19C60.0439 57.19 60.3339 57.26 60.6739 57.4C61.0139 57.54 61.1239 57.71 61.0039 57.91C59.9839 59.35 59.3839 60.8 59.2039 62.26C59.1839 62.44 59.1739 62.67 59.1739 62.95C59.1739 63.23 59.2539 63.46 59.4139 63.64C59.7139 63.96 60.1239 63.98 60.6439 63.7C61.1639 63.42 61.8839 62.86 62.8039 62.02C63.7439 61.18 64.4939 60.36 65.0539 59.56C65.1339 59.46 65.2239 59.44 65.3239 59.5C65.4239 59.54 65.4739 59.58 65.4739 59.62C65.4739 59.92 64.9939 60.58 64.0339 61.6C63.0939 62.6 62.3739 63.28 61.8739 63.64C60.9339 64.34 60.0639 64.69 59.2639 64.69C58.5039 64.69 57.9939 64.31 57.7339 63.55C57.6739 63.31 57.6439 63.04 57.6439 62.74C57.6439 61.84 57.8339 60.89 58.2139 59.89C58.1339 59.93 57.7639 60.33 57.1039 61.09C56.4439 61.85 55.6739 62.58 54.7939 63.28C53.9339 63.98 53.1539 64.33 52.4539 64.33ZM64.9648 64.3C64.7048 64.6 64.6448 64.84 64.7848 65.02C64.9448 65.2 65.1148 65.29 65.2948 65.29C65.4948 65.29 65.6948 65.26 65.8948 65.2C66.7548 64.94 67.5848 64.43 68.3848 63.67C69.2048 62.89 69.6148 62.1 69.6148 61.3C69.6148 60.86 69.1248 60.38 68.1448 59.86C67.6848 59.62 67.4248 59.48 67.3648 59.44C66.8248 59.08 66.4848 58.72 66.3448 58.36C66.0648 58.84 65.6148 59.53 64.9948 60.43C64.8548 60.59 64.7248 60.63 64.6048 60.55C64.4848 60.45 64.4748 60.32 64.5748 60.16C65.3948 59.04 65.9348 58.1 66.1948 57.34C66.3348 56.24 67.1348 55.25 68.5948 54.37C70.0548 53.49 71.3848 53.05 72.5848 53.05C73.3448 53.05 73.8748 53.19 74.1748 53.47C74.4948 53.73 74.6548 53.99 74.6548 54.25C74.6548 54.51 74.5748 54.81 74.4148 55.15C74.2748 55.49 73.9748 55.81 73.5148 56.11C73.3948 56.19 73.2948 56.17 73.2148 56.05C73.1748 55.93 73.2548 55.77 73.4548 55.57C73.6748 55.35 73.8148 55.06 73.8748 54.7C73.9348 54.34 73.7748 54.12 73.3948 54.04C73.3348 54.04 73.2748 54.04 73.2148 54.04C72.4348 54.04 71.4548 54.33 70.2748 54.91C69.1148 55.49 68.2048 56.24 67.5448 57.16C67.2848 57.5 67.1548 57.85 67.1548 58.21C67.1548 58.55 67.3948 58.86 67.8748 59.14C68.0748 59.26 68.4148 59.45 68.8948 59.71C69.3748 59.97 69.7148 60.16 69.9148 60.28C70.1148 60.4 70.3548 60.59 70.6348 60.85C70.9148 61.11 71.0648 61.35 71.0848 61.57C71.1848 62.17 70.9048 62.83 70.2448 63.55C69.3048 64.59 67.9048 65.32 66.0448 65.74C65.6248 65.84 65.1948 65.89 64.7548 65.89C64.3348 65.89 64.0448 65.73 63.8848 65.41C63.8248 65.33 63.7948 65.2 63.7948 65.02C63.7948 64.86 63.9548 64.59 64.2748 64.21C64.5748 63.91 65.0548 63.62 65.7148 63.34C65.7748 63.32 65.8248 63.33 65.8648 63.37C65.9048 63.41 65.9148 63.46 65.8948 63.52C65.8748 63.58 65.7648 63.65 65.5648 63.73C65.3848 63.81 65.1848 64 64.9648 64.3ZM73.8418 64.3C73.5818 64.6 73.5218 64.84 73.6618 65.02C73.8218 65.2 73.9918 65.29 74.1718 65.29C74.3718 65.29 74.5718 65.26 74.7718 65.2C75.6318 64.94 76.4618 64.43 77.2618 63.67C78.0818 62.89 78.4918 62.1 78.4918 61.3C78.4918 60.86 78.0018 60.38 77.0218 59.86C76.5618 59.62 76.3018 59.48 76.2418 59.44C75.7018 59.08 75.3618 58.72 75.2218 58.36C74.9418 58.84 74.4918 59.53 73.8718 60.43C73.7318 60.59 73.6018 60.63 73.4818 60.55C73.3618 60.45 73.3518 60.32 73.4518 60.16C74.2718 59.04 74.8118 58.1 75.0718 57.34C75.2118 56.24 76.0118 55.25 77.4718 54.37C78.9318 53.49 80.2618 53.05 81.4618 53.05C82.2218 53.05 82.7518 53.19 83.0518 53.47C83.3718 53.73 83.5318 53.99 83.5318 54.25C83.5318 54.51 83.4518 54.81 83.2918 55.15C83.1518 55.49 82.8518 55.81 82.3918 56.11C82.2718 56.19 82.1718 56.17 82.0918 56.05C82.0518 55.93 82.1318 55.77 82.3318 55.57C82.5518 55.35 82.6918 55.06 82.7518 54.7C82.8118 54.34 82.6518 54.12 82.2718 54.04C82.2118 54.04 82.1518 54.04 82.0918 54.04C81.3118 54.04 80.3318 54.33 79.1518 54.91C77.9918 55.49 77.0818 56.24 76.4218 57.16C76.1618 57.5 76.0318 57.85 76.0318 58.21C76.0318 58.55 76.2718 58.86 76.7518 59.14C76.9518 59.26 77.2918 59.45 77.7718 59.71C78.2518 59.97 78.5918 60.16 78.7918 60.28C78.9918 60.4 79.2318 60.59 79.5118 60.85C79.7918 61.11 79.9418 61.35 79.9618 61.57C80.0618 62.17 79.7818 62.83 79.1218 63.55C78.1818 64.59 76.7818 65.32 74.9218 65.74C74.5018 65.84 74.0718 65.89 73.6318 65.89C73.2118 65.89 72.9218 65.73 72.7618 65.41C72.7018 65.33 72.6718 65.2 72.6718 65.02C72.6718 64.86 72.8318 64.59 73.1518 64.21C73.4518 63.91 73.9318 63.62 74.5918 63.34C74.6518 63.32 74.7018 63.33 74.7418 63.37C74.7818 63.41 74.7918 63.46 74.7718 63.52C74.7518 63.58 74.6418 63.65 74.4418 63.73C74.2618 63.81 74.0618 64 73.8418 64.3Z" fill="white"/>
<defs>
<filter id="filter0_d_179_245" x="0" y="0" width="123" height="125" filterUnits="userSpaceOnUse" color-interpolation-filters="sRGB">
<feFlood flood-opacity="0" result="BackgroundImageFix"/>
<feColorMatrix in="SourceAlpha" type="matrix" values="0 0 0 0 0 0 0 0 0 0 0 0 0 0 0 0 0 0 127 0" result="hardAlpha"/>
<feOffset dx="4" dy="6"/>
<feGaussianBlur stdDeviation="10"/>
<feComposite in2="hardAlpha" operator="out"/>
<feColorMatrix type="matrix" values="0 0 0 0 0 0 0 0 0 0 0 0 0 0 0 0 0 0 0.5 0"/>
<feBlend mode="normal" in2="BackgroundImageFix" result="effect1_dropShadow_179_245"/>
<feBlend mode="normal" in="SourceGraphic" in2="effect1_dropShadow_179_245" result="shape"/>
</filter>
</defs>
</svg>
